<?xml version="1.0" encoding="utf-8" standalone="no"?>
<!DOCTYPE svg PUBLIC "-//W3C//DTD SVG 1.1//EN"
  "http://www.w3.org/Graphics/SVG/1.1/DTD/svg11.dtd">
<svg xmlns:xlink="http://www.w3.org/1999/xlink" width="568.551875pt" height="424.289844pt" viewBox="0 0 568.551875 424.289844" xmlns="http://www.w3.org/2000/svg" version="1.1">
 <metadata>
  <rdf:RDF xmlns:dc="http://purl.org/dc/elements/1.1/" xmlns:cc="http://creativecommons.org/ns#" xmlns:rdf="http://www.w3.org/1999/02/22-rdf-syntax-ns#">
   <cc:Work>
    <dc:type rdf:resource="http://purl.org/dc/dcmitype/StillImage"/>
    <dc:date>2026-04-24T15:36:16.849172</dc:date>
    <dc:format>image/svg+xml</dc:format>
    <dc:creator>
     <cc:Agent>
      <dc:title>Matplotlib v3.9.2, https://matplotlib.org/</dc:title>
     </cc:Agent>
    </dc:creator>
   </cc:Work>
  </rdf:RDF>
 </metadata>
 <defs>
  <style type="text/css">*{stroke-linejoin: round; stroke-linecap: butt}</style>
 </defs>
 <g id="figure_1">
  <g id="patch_1">
   <path d="M 0 424.289844 
L 568.551875 424.289844 
L 568.551875 0 
L 0 0 
z
" style="fill: #ffffff"/>
  </g>
  <g id="axes_1">
   <g id="patch_2">
    <path d="M 45.716875 384.797969 
L 561.351875 384.797969 
L 561.351875 29.077969 
L 45.716875 29.077969 
z
" style="fill: #ffffff"/>
   </g>
   <g id="PathCollection_1">
    <defs>
     <path id="md889e790a0" d="M 0 1.581139 
C 0.419323 1.581139 0.821528 1.41454 1.118034 1.118034 
C 1.41454 0.821528 1.581139 0.419323 1.581139 0 
C 1.581139 -0.419323 1.41454 -0.821528 1.118034 -1.118034 
C 0.821528 -1.41454 0.419323 -1.581139 0 -1.581139 
C -0.419323 -1.581139 -0.821528 -1.41454 -1.118034 -1.118034 
C -1.41454 -0.821528 -1.581139 -0.419323 -1.581139 0 
C -1.581139 0.419323 -1.41454 0.821528 -1.118034 1.118034 
C -0.821528 1.41454 -0.419323 1.581139 0 1.581139 
z
"/>
    </defs>
    <g clip-path="url(#pcd6479ad18)">
     <use xlink:href="#md889e790a0" x="377.024292" y="50.27223" style="fill: #1a4d8c; fill-opacity: 0.28"/>
     <use xlink:href="#md889e790a0" x="305.090955" y="49.702397" style="fill: #1a4d8c; fill-opacity: 0.28"/>
     <use xlink:href="#md889e790a0" x="139.859393" y="113.029418" style="fill: #1a4d8c; fill-opacity: 0.28"/>
     <use xlink:href="#md889e790a0" x="286.552799" y="60.158239" style="fill: #1a4d8c; fill-opacity: 0.28"/>
     <use xlink:href="#md889e790a0" x="459.109153" y="64.127118" style="fill: #1a4d8c; fill-opacity: 0.28"/>
     <use xlink:href="#md889e790a0" x="392.316297" y="56.521455" style="fill: #1a4d8c; fill-opacity: 0.28"/>
     <use xlink:href="#md889e790a0" x="142.259977" y="213.448357" style="fill: #1a4d8c; fill-opacity: 0.28"/>
     <use xlink:href="#md889e790a0" x="389.591439" y="63.194729" style="fill: #1a4d8c; fill-opacity: 0.28"/>
     <use xlink:href="#md889e790a0" x="319.80401" y="62.698664" style="fill: #1a4d8c; fill-opacity: 0.28"/>
     <use xlink:href="#md889e790a0" x="197.144139" y="80.460559" style="fill: #1a4d8c; fill-opacity: 0.28"/>
     <use xlink:href="#md889e790a0" x="149.351045" y="93.479497" style="fill: #1a4d8c; fill-opacity: 0.28"/>
     <use xlink:href="#md889e790a0" x="123.616902" y="204.729586" style="fill: #1a4d8c; fill-opacity: 0.28"/>
     <use xlink:href="#md889e790a0" x="375.621967" y="63.483135" style="fill: #1a4d8c; fill-opacity: 0.28"/>
     <use xlink:href="#md889e790a0" x="183.75604" y="102.019521" style="fill: #1a4d8c; fill-opacity: 0.28"/>
     <use xlink:href="#md889e790a0" x="374.140148" y="63.793453" style="fill: #1a4d8c; fill-opacity: 0.28"/>
     <use xlink:href="#md889e790a0" x="220.743612" y="127.721104" style="fill: #1a4d8c; fill-opacity: 0.28"/>
     <use xlink:href="#md889e790a0" x="406.904765" y="148.998437" style="fill: #1a4d8c; fill-opacity: 0.28"/>
     <use xlink:href="#md889e790a0" x="174.111149" y="215.730958" style="fill: #1a4d8c; fill-opacity: 0.28"/>
     <use xlink:href="#md889e790a0" x="108.440739" y="208.953838" style="fill: #1a4d8c; fill-opacity: 0.28"/>
     <use xlink:href="#md889e790a0" x="312.840847" y="74.854781" style="fill: #1a4d8c; fill-opacity: 0.28"/>
     <use xlink:href="#md889e790a0" x="247.705653" y="93.717046" style="fill: #1a4d8c; fill-opacity: 0.28"/>
     <use xlink:href="#md889e790a0" x="409.189429" y="56.385864" style="fill: #1a4d8c; fill-opacity: 0.28"/>
     <use xlink:href="#md889e790a0" x="252.967249" y="118.177723" style="fill: #1a4d8c; fill-opacity: 0.28"/>
     <use xlink:href="#md889e790a0" x="401.010514" y="73.686608" style="fill: #1a4d8c; fill-opacity: 0.28"/>
     <use xlink:href="#md889e790a0" x="353.177707" y="61.316812" style="fill: #1a4d8c; fill-opacity: 0.28"/>
     <use xlink:href="#md889e790a0" x="333.687984" y="51.431371" style="fill: #1a4d8c; fill-opacity: 0.28"/>
     <use xlink:href="#md889e790a0" x="205.950022" y="182.131547" style="fill: #1a4d8c; fill-opacity: 0.28"/>
     <use xlink:href="#md889e790a0" x="125.130015" y="122.201314" style="fill: #1a4d8c; fill-opacity: 0.28"/>
     <use xlink:href="#md889e790a0" x="402.686466" y="61.641568" style="fill: #1a4d8c; fill-opacity: 0.28"/>
     <use xlink:href="#md889e790a0" x="236.322753" y="180.359129" style="fill: #1a4d8c; fill-opacity: 0.28"/>
     <use xlink:href="#md889e790a0" x="203.753463" y="84.857308" style="fill: #1a4d8c; fill-opacity: 0.28"/>
     <use xlink:href="#md889e790a0" x="384.775052" y="54.298266" style="fill: #1a4d8c; fill-opacity: 0.28"/>
     <use xlink:href="#md889e790a0" x="456.860178" y="62.483651" style="fill: #1a4d8c; fill-opacity: 0.28"/>
     <use xlink:href="#md889e790a0" x="444.357139" y="55.642974" style="fill: #1a4d8c; fill-opacity: 0.28"/>
     <use xlink:href="#md889e790a0" x="467.06534" y="69.484043" style="fill: #1a4d8c; fill-opacity: 0.28"/>
     <use xlink:href="#md889e790a0" x="481.813058" y="150.947245" style="fill: #1a4d8c; fill-opacity: 0.28"/>
     <use xlink:href="#md889e790a0" x="292.188425" y="63.978991" style="fill: #1a4d8c; fill-opacity: 0.28"/>
     <use xlink:href="#md889e790a0" x="167.044424" y="114.904397" style="fill: #1a4d8c; fill-opacity: 0.28"/>
     <use xlink:href="#md889e790a0" x="345.022564" y="57.007531" style="fill: #1a4d8c; fill-opacity: 0.28"/>
     <use xlink:href="#md889e790a0" x="311.628602" y="85.937268" style="fill: #1a4d8c; fill-opacity: 0.28"/>
     <use xlink:href="#md889e790a0" x="435.645062" y="51.135727" style="fill: #1a4d8c; fill-opacity: 0.28"/>
     <use xlink:href="#md889e790a0" x="329.387462" y="67.54801" style="fill: #1a4d8c; fill-opacity: 0.28"/>
     <use xlink:href="#md889e790a0" x="425.899557" y="60.256934" style="fill: #1a4d8c; fill-opacity: 0.28"/>
     <use xlink:href="#md889e790a0" x="268.542966" y="85.799252" style="fill: #1a4d8c; fill-opacity: 0.28"/>
     <use xlink:href="#md889e790a0" x="380.856204" y="70.193235" style="fill: #1a4d8c; fill-opacity: 0.28"/>
     <use xlink:href="#md889e790a0" x="226.417495" y="103.693078" style="fill: #1a4d8c; fill-opacity: 0.28"/>
     <use xlink:href="#md889e790a0" x="385.375072" y="54.751611" style="fill: #1a4d8c; fill-opacity: 0.28"/>
     <use xlink:href="#md889e790a0" x="151.768563" y="118.530106" style="fill: #1a4d8c; fill-opacity: 0.28"/>
     <use xlink:href="#md889e790a0" x="201.17242" y="102.446005" style="fill: #1a4d8c; fill-opacity: 0.28"/>
     <use xlink:href="#md889e790a0" x="262.071211" y="95.151965" style="fill: #1a4d8c; fill-opacity: 0.28"/>
     <use xlink:href="#md889e790a0" x="223.223427" y="77.335242" style="fill: #1a4d8c; fill-opacity: 0.28"/>
     <use xlink:href="#md889e790a0" x="97.471216" y="248.886202" style="fill: #1a4d8c; fill-opacity: 0.28"/>
     <use xlink:href="#md889e790a0" x="478.722027" y="249.271757" style="fill: #1a4d8c; fill-opacity: 0.28"/>
     <use xlink:href="#md889e790a0" x="89.426627" y="234.77101" style="fill: #1a4d8c; fill-opacity: 0.28"/>
     <use xlink:href="#md889e790a0" x="231.326353" y="138.823513" style="fill: #1a4d8c; fill-opacity: 0.28"/>
     <use xlink:href="#md889e790a0" x="95.834281" y="239.890325" style="fill: #1a4d8c; fill-opacity: 0.28"/>
     <use xlink:href="#md889e790a0" x="213.473284" y="81.009836" style="fill: #1a4d8c; fill-opacity: 0.28"/>
     <use xlink:href="#md889e790a0" x="263.811234" y="122.092796" style="fill: #1a4d8c; fill-opacity: 0.28"/>
     <use xlink:href="#md889e790a0" x="398.904052" y="52.19934" style="fill: #1a4d8c; fill-opacity: 0.28"/>
     <use xlink:href="#md889e790a0" x="412.684319" y="59.702028" style="fill: #1a4d8c; fill-opacity: 0.28"/>
     <use xlink:href="#md889e790a0" x="172.283523" y="160.498257" style="fill: #1a4d8c; fill-opacity: 0.28"/>
     <use xlink:href="#md889e790a0" x="106.782575" y="117.706709" style="fill: #1a4d8c; fill-opacity: 0.28"/>
     <use xlink:href="#md889e790a0" x="207.316672" y="81.217328" style="fill: #1a4d8c; fill-opacity: 0.28"/>
     <use xlink:href="#md889e790a0" x="370.737438" y="73.712537" style="fill: #1a4d8c; fill-opacity: 0.28"/>
     <use xlink:href="#md889e790a0" x="337.951232" y="63.233196" style="fill: #1a4d8c; fill-opacity: 0.28"/>
     <use xlink:href="#md889e790a0" x="76.747444" y="288.199045" style="fill: #1a4d8c; fill-opacity: 0.28"/>
     <use xlink:href="#md889e790a0" x="316.525024" y="63.47511" style="fill: #1a4d8c; fill-opacity: 0.28"/>
     <use xlink:href="#md889e790a0" x="129.189972" y="138.637136" style="fill: #1a4d8c; fill-opacity: 0.28"/>
     <use xlink:href="#md889e790a0" x="130.136731" y="149.322646" style="fill: #1a4d8c; fill-opacity: 0.28"/>
     <use xlink:href="#md889e790a0" x="335.216834" y="54.596074" style="fill: #1a4d8c; fill-opacity: 0.28"/>
     <use xlink:href="#md889e790a0" x="426.606176" y="75.519222" style="fill: #1a4d8c; fill-opacity: 0.28"/>
     <use xlink:href="#md889e790a0" x="397.952322" y="70.070258" style="fill: #1a4d8c; fill-opacity: 0.28"/>
     <use xlink:href="#md889e790a0" x="364.560585" y="60.980991" style="fill: #1a4d8c; fill-opacity: 0.28"/>
     <use xlink:href="#md889e790a0" x="176.814048" y="90.165536" style="fill: #1a4d8c; fill-opacity: 0.28"/>
     <use xlink:href="#md889e790a0" x="103.805503" y="237.265894" style="fill: #1a4d8c; fill-opacity: 0.28"/>
     <use xlink:href="#md889e790a0" x="228.336866" y="105.115391" style="fill: #1a4d8c; fill-opacity: 0.28"/>
     <use xlink:href="#md889e790a0" x="248.436209" y="79.943879" style="fill: #1a4d8c; fill-opacity: 0.28"/>
     <use xlink:href="#md889e790a0" x="365.599588" y="65.113165" style="fill: #1a4d8c; fill-opacity: 0.28"/>
     <use xlink:href="#md889e790a0" x="393.098716" y="55.551342" style="fill: #1a4d8c; fill-opacity: 0.28"/>
     <use xlink:href="#md889e790a0" x="428.50474" y="54.006602" style="fill: #1a4d8c; fill-opacity: 0.28"/>
     <use xlink:href="#md889e790a0" x="358.070216" y="62.65778" style="fill: #1a4d8c; fill-opacity: 0.28"/>
     <use xlink:href="#md889e790a0" x="165.710761" y="147.235829" style="fill: #1a4d8c; fill-opacity: 0.28"/>
     <use xlink:href="#md889e790a0" x="468.709867" y="86.723704" style="fill: #1a4d8c; fill-opacity: 0.28"/>
     <use xlink:href="#md889e790a0" x="280.932165" y="77.947619" style="fill: #1a4d8c; fill-opacity: 0.28"/>
     <use xlink:href="#md889e790a0" x="359.85602" y="57.073559" style="fill: #1a4d8c; fill-opacity: 0.28"/>
     <use xlink:href="#md889e790a0" x="177.906824" y="90.460321" style="fill: #1a4d8c; fill-opacity: 0.28"/>
     <use xlink:href="#md889e790a0" x="92.002295" y="240.283944" style="fill: #1a4d8c; fill-opacity: 0.28"/>
     <use xlink:href="#md889e790a0" x="71.622451" y="368.628878" style="fill: #1a4d8c; fill-opacity: 0.28"/>
     <use xlink:href="#md889e790a0" x="343.693059" y="66.699483" style="fill: #1a4d8c; fill-opacity: 0.28"/>
     <use xlink:href="#md889e790a0" x="157.03028" y="120.301746" style="fill: #1a4d8c; fill-opacity: 0.28"/>
     <use xlink:href="#md889e790a0" x="422.769779" y="76.756677" style="fill: #1a4d8c; fill-opacity: 0.28"/>
     <use xlink:href="#md889e790a0" x="128.37793" y="199.433068" style="fill: #1a4d8c; fill-opacity: 0.28"/>
     <use xlink:href="#md889e790a0" x="278.736897" y="59.531025" style="fill: #1a4d8c; fill-opacity: 0.28"/>
     <use xlink:href="#md889e790a0" x="387.87847" y="52.353601" style="fill: #1a4d8c; fill-opacity: 0.28"/>
     <use xlink:href="#md889e790a0" x="199.486633" y="87.853285" style="fill: #1a4d8c; fill-opacity: 0.28"/>
     <use xlink:href="#md889e790a0" x="474.779011" y="86.73168" style="fill: #1a4d8c; fill-opacity: 0.28"/>
     <use xlink:href="#md889e790a0" x="124.233959" y="192.297756" style="fill: #1a4d8c; fill-opacity: 0.28"/>
     <use xlink:href="#md889e790a0" x="115.13678" y="127.684866" style="fill: #1a4d8c; fill-opacity: 0.28"/>
     <use xlink:href="#md889e790a0" x="121.44781" y="151.474265" style="fill: #1a4d8c; fill-opacity: 0.28"/>
     <use xlink:href="#md889e790a0" x="119.890555" y="139.807817" style="fill: #1a4d8c; fill-opacity: 0.28"/>
     <use xlink:href="#md889e790a0" x="138.660518" y="122.364041" style="fill: #1a4d8c; fill-opacity: 0.28"/>
     <use xlink:href="#md889e790a0" x="127.12641" y="209.565984" style="fill: #1a4d8c; fill-opacity: 0.28"/>
     <use xlink:href="#md889e790a0" x="72.656347" y="272.463832" style="fill: #1a4d8c; fill-opacity: 0.28"/>
     <use xlink:href="#md889e790a0" x="195.219582" y="89.782743" style="fill: #1a4d8c; fill-opacity: 0.28"/>
     <use xlink:href="#md889e790a0" x="227.643451" y="110.942997" style="fill: #1a4d8c; fill-opacity: 0.28"/>
     <use xlink:href="#md889e790a0" x="452.280621" y="84.820468" style="fill: #1a4d8c; fill-opacity: 0.28"/>
     <use xlink:href="#md889e790a0" x="301.336759" y="69.483673" style="fill: #1a4d8c; fill-opacity: 0.28"/>
     <use xlink:href="#md889e790a0" x="105.30256" y="219.574338" style="fill: #1a4d8c; fill-opacity: 0.28"/>
     <use xlink:href="#md889e790a0" x="239.42598" y="118.134144" style="fill: #1a4d8c; fill-opacity: 0.28"/>
     <use xlink:href="#md889e790a0" x="198.910406" y="98.650966" style="fill: #1a4d8c; fill-opacity: 0.28"/>
     <use xlink:href="#md889e790a0" x="92.956453" y="275.583401" style="fill: #1a4d8c; fill-opacity: 0.28"/>
     <use xlink:href="#md889e790a0" x="416.549594" y="64.459166" style="fill: #1a4d8c; fill-opacity: 0.28"/>
     <use xlink:href="#md889e790a0" x="279.833844" y="56.57897" style="fill: #1a4d8c; fill-opacity: 0.28"/>
     <use xlink:href="#md889e790a0" x="297.717434" y="84.310975" style="fill: #1a4d8c; fill-opacity: 0.28"/>
     <use xlink:href="#md889e790a0" x="362.540773" y="62.127735" style="fill: #1a4d8c; fill-opacity: 0.28"/>
     <use xlink:href="#md889e790a0" x="304.307571" y="60.636802" style="fill: #1a4d8c; fill-opacity: 0.28"/>
     <use xlink:href="#md889e790a0" x="259.004261" y="90.645554" style="fill: #1a4d8c; fill-opacity: 0.28"/>
     <use xlink:href="#md889e790a0" x="341.813017" y="52.33118" style="fill: #1a4d8c; fill-opacity: 0.28"/>
     <use xlink:href="#md889e790a0" x="118.036629" y="127.433541" style="fill: #1a4d8c; fill-opacity: 0.28"/>
     <use xlink:href="#md889e790a0" x="302.793152" y="119.368547" style="fill: #1a4d8c; fill-opacity: 0.28"/>
     <use xlink:href="#md889e790a0" x="317.808493" y="60.241118" style="fill: #1a4d8c; fill-opacity: 0.28"/>
     <use xlink:href="#md889e790a0" x="147.155624" y="133.581189" style="fill: #1a4d8c; fill-opacity: 0.28"/>
     <use xlink:href="#md889e790a0" x="112.622465" y="112.429051" style="fill: #1a4d8c; fill-opacity: 0.28"/>
     <use xlink:href="#md889e790a0" x="261.127754" y="102.13806" style="fill: #1a4d8c; fill-opacity: 0.28"/>
     <use xlink:href="#md889e790a0" x="313.429548" y="57.799953" style="fill: #1a4d8c; fill-opacity: 0.28"/>
     <use xlink:href="#md889e790a0" x="296.365795" y="57.208136" style="fill: #1a4d8c; fill-opacity: 0.28"/>
     <use xlink:href="#md889e790a0" x="407.906216" y="63.526465" style="fill: #1a4d8c; fill-opacity: 0.28"/>
     <use xlink:href="#md889e790a0" x="329.865324" y="55.420975" style="fill: #1a4d8c; fill-opacity: 0.28"/>
     <use xlink:href="#md889e790a0" x="93.813684" y="255.214957" style="fill: #1a4d8c; fill-opacity: 0.28"/>
     <use xlink:href="#md889e790a0" x="202.320603" y="74.439747" style="fill: #1a4d8c; fill-opacity: 0.28"/>
     <use xlink:href="#md889e790a0" x="75.059395" y="258.993491" style="fill: #1a4d8c; fill-opacity: 0.28"/>
     <use xlink:href="#md889e790a0" x="412.344787" y="52.957963" style="fill: #1a4d8c; fill-opacity: 0.28"/>
     <use xlink:href="#md889e790a0" x="143.311869" y="127.505526" style="fill: #1a4d8c; fill-opacity: 0.28"/>
     <use xlink:href="#md889e790a0" x="210.835999" y="148.134402" style="fill: #1a4d8c; fill-opacity: 0.28"/>
     <use xlink:href="#md889e790a0" x="449.6276" y="52.228531" style="fill: #1a4d8c; fill-opacity: 0.28"/>
     <use xlink:href="#md889e790a0" x="181.596891" y="184.501347" style="fill: #1a4d8c; fill-opacity: 0.28"/>
     <use xlink:href="#md889e790a0" x="163.823918" y="98.614156" style="fill: #1a4d8c; fill-opacity: 0.28"/>
     <use xlink:href="#md889e790a0" x="469.590436" y="69.199455" style="fill: #1a4d8c; fill-opacity: 0.28"/>
     <use xlink:href="#md889e790a0" x="451.099667" y="54.847145" style="fill: #1a4d8c; fill-opacity: 0.28"/>
     <use xlink:href="#md889e790a0" x="254.474706" y="67.986886" style="fill: #1a4d8c; fill-opacity: 0.28"/>
     <use xlink:href="#md889e790a0" x="463.318622" y="73.106303" style="fill: #1a4d8c; fill-opacity: 0.28"/>
     <use xlink:href="#md889e790a0" x="331.511792" y="64.534241" style="fill: #1a4d8c; fill-opacity: 0.28"/>
     <use xlink:href="#md889e790a0" x="382.230822" y="63.996746" style="fill: #1a4d8c; fill-opacity: 0.28"/>
     <use xlink:href="#md889e790a0" x="460.904042" y="72.127909" style="fill: #1a4d8c; fill-opacity: 0.28"/>
     <use xlink:href="#md889e790a0" x="379.195515" y="68.46968" style="fill: #1a4d8c; fill-opacity: 0.28"/>
     <use xlink:href="#md889e790a0" x="323.726938" y="48.296979" style="fill: #1a4d8c; fill-opacity: 0.28"/>
     <use xlink:href="#md889e790a0" x="77.751961" y="223.289792" style="fill: #1a4d8c; fill-opacity: 0.28"/>
     <use xlink:href="#md889e790a0" x="164.584535" y="272.385979" style="fill: #1a4d8c; fill-opacity: 0.28"/>
     <use xlink:href="#md889e790a0" x="369.113674" y="57.739201" style="fill: #1a4d8c; fill-opacity: 0.28"/>
     <use xlink:href="#md889e790a0" x="256.916347" y="81.938879" style="fill: #1a4d8c; fill-opacity: 0.28"/>
     <use xlink:href="#md889e790a0" x="254.059444" y="68.723946" style="fill: #1a4d8c; fill-opacity: 0.28"/>
     <use xlink:href="#md889e790a0" x="289.288091" y="76.733568" style="fill: #1a4d8c; fill-opacity: 0.28"/>
     <use xlink:href="#md889e790a0" x="108.919473" y="207.44248" style="fill: #1a4d8c; fill-opacity: 0.28"/>
     <use xlink:href="#md889e790a0" x="410.670185" y="61.711679" style="fill: #1a4d8c; fill-opacity: 0.28"/>
     <use xlink:href="#md889e790a0" x="240.695093" y="88.441042" style="fill: #1a4d8c; fill-opacity: 0.28"/>
     <use xlink:href="#md889e790a0" x="158.479045" y="121.107651" style="fill: #1a4d8c; fill-opacity: 0.28"/>
     <use xlink:href="#md889e790a0" x="132.930347" y="142.619555" style="fill: #1a4d8c; fill-opacity: 0.28"/>
     <use xlink:href="#md889e790a0" x="424.598066" y="45.24706" style="fill: #1a4d8c; fill-opacity: 0.28"/>
     <use xlink:href="#md889e790a0" x="387.014008" y="74.919053" style="fill: #1a4d8c; fill-opacity: 0.28"/>
     <use xlink:href="#md889e790a0" x="371.996907" y="47.178973" style="fill: #1a4d8c; fill-opacity: 0.28"/>
     <use xlink:href="#md889e790a0" x="231.906723" y="80.186594" style="fill: #1a4d8c; fill-opacity: 0.28"/>
     <use xlink:href="#md889e790a0" x="333.247654" y="56.714605" style="fill: #1a4d8c; fill-opacity: 0.28"/>
     <use xlink:href="#md889e790a0" x="355.069072" y="54.022249" style="fill: #1a4d8c; fill-opacity: 0.28"/>
     <use xlink:href="#md889e790a0" x="216.763104" y="92.255079" style="fill: #1a4d8c; fill-opacity: 0.28"/>
     <use xlink:href="#md889e790a0" x="298.94525" y="56.466632" style="fill: #1a4d8c; fill-opacity: 0.28"/>
     <use xlink:href="#md889e790a0" x="120.478211" y="137.605219" style="fill: #1a4d8c; fill-opacity: 0.28"/>
     <use xlink:href="#md889e790a0" x="210.126261" y="78.177822" style="fill: #1a4d8c; fill-opacity: 0.28"/>
     <use xlink:href="#md889e790a0" x="390.871853" y="111.54966" style="fill: #1a4d8c; fill-opacity: 0.28"/>
     <use xlink:href="#md889e790a0" x="186.950821" y="81.056585" style="fill: #1a4d8c; fill-opacity: 0.28"/>
     <use xlink:href="#md889e790a0" x="256.71318" y="107.44246" style="fill: #1a4d8c; fill-opacity: 0.28"/>
     <use xlink:href="#md889e790a0" x="170.601689" y="193.472006" style="fill: #1a4d8c; fill-opacity: 0.28"/>
     <use xlink:href="#md889e790a0" x="479.670215" y="83.685409" style="fill: #1a4d8c; fill-opacity: 0.28"/>
     <use xlink:href="#md889e790a0" x="264.713202" y="84.986536" style="fill: #1a4d8c; fill-opacity: 0.28"/>
     <use xlink:href="#md889e790a0" x="357.121873" y="75.15732" style="fill: #1a4d8c; fill-opacity: 0.28"/>
     <use xlink:href="#md889e790a0" x="214.396118" y="81.789387" style="fill: #1a4d8c; fill-opacity: 0.28"/>
     <use xlink:href="#md889e790a0" x="293.347725" y="60.523331" style="fill: #1a4d8c; fill-opacity: 0.28"/>
     <use xlink:href="#md889e790a0" x="87.911702" y="255.257487" style="fill: #1a4d8c; fill-opacity: 0.28"/>
     <use xlink:href="#md889e790a0" x="323.291157" y="65.583788" style="fill: #1a4d8c; fill-opacity: 0.28"/>
     <use xlink:href="#md889e790a0" x="267.942131" y="63.822749" style="fill: #1a4d8c; fill-opacity: 0.28"/>
     <use xlink:href="#md889e790a0" x="153.543939" y="158.824314" style="fill: #1a4d8c; fill-opacity: 0.28"/>
     <use xlink:href="#md889e790a0" x="132.363687" y="167.351306" style="fill: #1a4d8c; fill-opacity: 0.28"/>
     <use xlink:href="#md889e790a0" x="80.897471" y="263.331794" style="fill: #1a4d8c; fill-opacity: 0.28"/>
     <use xlink:href="#md889e790a0" x="318.990131" y="71.640761" style="fill: #1a4d8c; fill-opacity: 0.28"/>
     <use xlink:href="#md889e790a0" x="458.104344" y="63.342214" style="fill: #1a4d8c; fill-opacity: 0.28"/>
     <use xlink:href="#md889e790a0" x="193.741477" y="69.142549" style="fill: #1a4d8c; fill-opacity: 0.28"/>
     <use xlink:href="#md889e790a0" x="243.830669" y="87.396088" style="fill: #1a4d8c; fill-opacity: 0.28"/>
     <use xlink:href="#md889e790a0" x="192.036064" y="107.410678" style="fill: #1a4d8c; fill-opacity: 0.28"/>
     <use xlink:href="#md889e790a0" x="69.952" y="238.196637" style="fill: #1a4d8c; fill-opacity: 0.28"/>
     <use xlink:href="#md889e790a0" x="439.760934" y="62.173417" style="fill: #1a4d8c; fill-opacity: 0.28"/>
     <use xlink:href="#md889e790a0" x="483.150868" y="104.609258" style="fill: #1a4d8c; fill-opacity: 0.28"/>
     <use xlink:href="#md889e790a0" x="84.712507" y="250.13474" style="fill: #1a4d8c; fill-opacity: 0.28"/>
     <use xlink:href="#md889e790a0" x="249.632101" y="132.255448" style="fill: #1a4d8c; fill-opacity: 0.28"/>
     <use xlink:href="#md889e790a0" x="339.883506" y="49.893172" style="fill: #1a4d8c; fill-opacity: 0.28"/>
     <use xlink:href="#md889e790a0" x="336.917774" y="83.689748" style="fill: #1a4d8c; fill-opacity: 0.28"/>
     <use xlink:href="#md889e790a0" x="188.021043" y="100.217615" style="fill: #1a4d8c; fill-opacity: 0.28"/>
     <use xlink:href="#md889e790a0" x="189.305747" y="103.177805" style="fill: #1a4d8c; fill-opacity: 0.28"/>
     <use xlink:href="#md889e790a0" x="86.841967" y="197.425297" style="fill: #1a4d8c; fill-opacity: 0.28"/>
     <use xlink:href="#md889e790a0" x="402.244892" y="101.856145" style="fill: #1a4d8c; fill-opacity: 0.28"/>
     <use xlink:href="#md889e790a0" x="81.365325" y="253.334937" style="fill: #1a4d8c; fill-opacity: 0.28"/>
     <use xlink:href="#md889e790a0" x="208.284016" y="83.648751" style="fill: #1a4d8c; fill-opacity: 0.28"/>
     <use xlink:href="#md889e790a0" x="144.789047" y="96.917048" style="fill: #1a4d8c; fill-opacity: 0.28"/>
     <use xlink:href="#md889e790a0" x="437.50449" y="72.821038" style="fill: #1a4d8c; fill-opacity: 0.28"/>
     <use xlink:href="#md889e790a0" x="354.11937" y="51.337961" style="fill: #1a4d8c; fill-opacity: 0.28"/>
     <use xlink:href="#md889e790a0" x="224.415493" y="95.02666" style="fill: #1a4d8c; fill-opacity: 0.28"/>
     <use xlink:href="#md889e790a0" x="428.890174" y="52.944488" style="fill: #1a4d8c; fill-opacity: 0.28"/>
     <use xlink:href="#md889e790a0" x="244.597931" y="94.774521" style="fill: #1a4d8c; fill-opacity: 0.28"/>
     <use xlink:href="#md889e790a0" x="461.662378" y="54.762209" style="fill: #1a4d8c; fill-opacity: 0.28"/>
     <use xlink:href="#md889e790a0" x="271.466371" y="93.456131" style="fill: #1a4d8c; fill-opacity: 0.28"/>
     <use xlink:href="#md889e790a0" x="154.091148" y="161.858903" style="fill: #1a4d8c; fill-opacity: 0.28"/>
     <use xlink:href="#md889e790a0" x="272.528148" y="64.320907" style="fill: #1a4d8c; fill-opacity: 0.28"/>
     <use xlink:href="#md889e790a0" x="378.1896" y="57.686181" style="fill: #1a4d8c; fill-opacity: 0.28"/>
     <use xlink:href="#md889e790a0" x="339.146018" y="57.57233" style="fill: #1a4d8c; fill-opacity: 0.28"/>
     <use xlink:href="#md889e790a0" x="85.13514" y="287.605336" style="fill: #1a4d8c; fill-opacity: 0.28"/>
     <use xlink:href="#md889e790a0" x="328.099855" y="64.524917" style="fill: #1a4d8c; fill-opacity: 0.28"/>
     <use xlink:href="#md889e790a0" x="430.938051" y="74.311735" style="fill: #1a4d8c; fill-opacity: 0.28"/>
     <use xlink:href="#md889e790a0" x="162.320493" y="80.342103" style="fill: #1a4d8c; fill-opacity: 0.28"/>
     <use xlink:href="#md889e790a0" x="367.510511" y="68.071401" style="fill: #1a4d8c; fill-opacity: 0.28"/>
     <use xlink:href="#md889e790a0" x="259.542442" y="101.814394" style="fill: #1a4d8c; fill-opacity: 0.28"/>
     <use xlink:href="#md889e790a0" x="117.34107" y="166.510129" style="fill: #1a4d8c; fill-opacity: 0.28"/>
     <use xlink:href="#md889e790a0" x="242.276958" y="115.726621" style="fill: #1a4d8c; fill-opacity: 0.28"/>
     <use xlink:href="#md889e790a0" x="446.789298" y="56.713628" style="fill: #1a4d8c; fill-opacity: 0.28"/>
     <use xlink:href="#md889e790a0" x="269.997405" y="73.353918" style="fill: #1a4d8c; fill-opacity: 0.28"/>
     <use xlink:href="#md889e790a0" x="246.342721" y="105.478462" style="fill: #1a4d8c; fill-opacity: 0.28"/>
     <use xlink:href="#md889e790a0" x="537.91392" y="307.285686" style="fill: #1a4d8c; fill-opacity: 0.28"/>
     <use xlink:href="#md889e790a0" x="234.619319" y="76.507626" style="fill: #1a4d8c; fill-opacity: 0.28"/>
     <use xlink:href="#md889e790a0" x="283.043724" y="83.007682" style="fill: #1a4d8c; fill-opacity: 0.28"/>
     <use xlink:href="#md889e790a0" x="284.537644" y="88.801532" style="fill: #1a4d8c; fill-opacity: 0.28"/>
     <use xlink:href="#md889e790a0" x="159.602156" y="139.880804" style="fill: #1a4d8c; fill-opacity: 0.28"/>
     <use xlink:href="#md889e790a0" x="79.34897" y="166.488855" style="fill: #1a4d8c; fill-opacity: 0.28"/>
     <use xlink:href="#md889e790a0" x="135.242943" y="198.632537" style="fill: #1a4d8c; fill-opacity: 0.28"/>
     <use xlink:href="#md889e790a0" x="434.054373" y="54.447788" style="fill: #1a4d8c; fill-opacity: 0.28"/>
     <use xlink:href="#md889e790a0" x="184.555341" y="169.419443" style="fill: #1a4d8c; fill-opacity: 0.28"/>
     <use xlink:href="#md889e790a0" x="173.875361" y="105.260341" style="fill: #1a4d8c; fill-opacity: 0.28"/>
     <use xlink:href="#md889e790a0" x="342.928922" y="56.148357" style="fill: #1a4d8c; fill-opacity: 0.28"/>
     <use xlink:href="#md889e790a0" x="414.864409" y="61.701139" style="fill: #1a4d8c; fill-opacity: 0.28"/>
     <use xlink:href="#md889e790a0" x="419.740432" y="57.174906" style="fill: #1a4d8c; fill-opacity: 0.28"/>
     <use xlink:href="#md889e790a0" x="148.20482" y="115.000862" style="fill: #1a4d8c; fill-opacity: 0.28"/>
     <use xlink:href="#md889e790a0" x="274.098072" y="73.432626" style="fill: #1a4d8c; fill-opacity: 0.28"/>
     <use xlink:href="#md889e790a0" x="361.105859" y="57.417064" style="fill: #1a4d8c; fill-opacity: 0.28"/>
     <use xlink:href="#md889e790a0" x="441.551208" y="65.711176" style="fill: #1a4d8c; fill-opacity: 0.28"/>
     <use xlink:href="#md889e790a0" x="168.699412" y="117.328104" style="fill: #1a4d8c; fill-opacity: 0.28"/>
     <use xlink:href="#md889e790a0" x="433.540723" y="71.022403" style="fill: #1a4d8c; fill-opacity: 0.28"/>
     <use xlink:href="#md889e790a0" x="454.244203" y="57.361973" style="fill: #1a4d8c; fill-opacity: 0.28"/>
     <use xlink:href="#md889e790a0" x="453.325686" y="61.072757" style="fill: #1a4d8c; fill-opacity: 0.28"/>
     <use xlink:href="#md889e790a0" x="216.150172" y="91.218654" style="fill: #1a4d8c; fill-opacity: 0.28"/>
     <use xlink:href="#md889e790a0" x="438.642238" y="57.448873" style="fill: #1a4d8c; fill-opacity: 0.28"/>
     <use xlink:href="#md889e790a0" x="175.975791" y="222.920073" style="fill: #1a4d8c; fill-opacity: 0.28"/>
     <use xlink:href="#md889e790a0" x="382.892729" y="55.583939" style="fill: #1a4d8c; fill-opacity: 0.28"/>
     <use xlink:href="#md889e790a0" x="420.50976" y="67.57552" style="fill: #1a4d8c; fill-opacity: 0.28"/>
     <use xlink:href="#md889e790a0" x="90.411984" y="260.65226" style="fill: #1a4d8c; fill-opacity: 0.28"/>
     <use xlink:href="#md889e790a0" x="204.903928" y="105.264165" style="fill: #1a4d8c; fill-opacity: 0.28"/>
     <use xlink:href="#md889e790a0" x="350.767688" y="59.742672" style="fill: #1a4d8c; fill-opacity: 0.28"/>
     <use xlink:href="#md889e790a0" x="431.89794" y="54.000445" style="fill: #1a4d8c; fill-opacity: 0.28"/>
     <use xlink:href="#md889e790a0" x="480.623656" y="223.776951" style="fill: #1a4d8c; fill-opacity: 0.28"/>
     <use xlink:href="#md889e790a0" x="405.290225" y="63.504805" style="fill: #1a4d8c; fill-opacity: 0.28"/>
     <use xlink:href="#md889e790a0" x="218.819038" y="82.869266" style="fill: #1a4d8c; fill-opacity: 0.28"/>
     <use xlink:href="#md889e790a0" x="441.095118" y="73.419672" style="fill: #1a4d8c; fill-opacity: 0.28"/>
     <use xlink:href="#md889e790a0" x="455.355654" y="70.198909" style="fill: #1a4d8c; fill-opacity: 0.28"/>
     <use xlink:href="#md889e790a0" x="145.241272" y="162.143851" style="fill: #1a4d8c; fill-opacity: 0.28"/>
     <use xlink:href="#md889e790a0" x="310.28809" y="77.209843" style="fill: #1a4d8c; fill-opacity: 0.28"/>
     <use xlink:href="#md889e790a0" x="236.971531" y="76.898149" style="fill: #1a4d8c; fill-opacity: 0.28"/>
     <use xlink:href="#md889e790a0" x="110.94808" y="119.152236" style="fill: #1a4d8c; fill-opacity: 0.28"/>
     <use xlink:href="#md889e790a0" x="473.162184" y="57.775742" style="fill: #1a4d8c; fill-opacity: 0.28"/>
     <use xlink:href="#md889e790a0" x="229.43685" y="64.335185" style="fill: #1a4d8c; fill-opacity: 0.28"/>
     <use xlink:href="#md889e790a0" x="141.185209" y="117.999641" style="fill: #1a4d8c; fill-opacity: 0.28"/>
     <use xlink:href="#md889e790a0" x="211.886468" y="99.730185" style="fill: #1a4d8c; fill-opacity: 0.28"/>
     <use xlink:href="#md889e790a0" x="325.002332" y="85.525259" style="fill: #1a4d8c; fill-opacity: 0.28"/>
     <use xlink:href="#md889e790a0" x="490.559972" y="143.148069" style="fill: #1a4d8c; fill-opacity: 0.28"/>
     <use xlink:href="#md889e790a0" x="393.855203" y="60.465157" style="fill: #1a4d8c; fill-opacity: 0.28"/>
     <use xlink:href="#md889e790a0" x="417.600202" y="51.505535" style="fill: #1a4d8c; fill-opacity: 0.28"/>
     <use xlink:href="#md889e790a0" x="358.6376" y="49.136339" style="fill: #1a4d8c; fill-opacity: 0.28"/>
     <use xlink:href="#md889e790a0" x="287.217563" y="86.641319" style="fill: #1a4d8c; fill-opacity: 0.28"/>
     <use xlink:href="#md889e790a0" x="421.40266" y="75.230367" style="fill: #1a4d8c; fill-opacity: 0.28"/>
     <use xlink:href="#md889e790a0" x="443.351124" y="65.269667" style="fill: #1a4d8c; fill-opacity: 0.28"/>
     <use xlink:href="#md889e790a0" x="74.38039" y="265.059841" style="fill: #1a4d8c; fill-opacity: 0.28"/>
     <use xlink:href="#md889e790a0" x="404.212223" y="51.922147" style="fill: #1a4d8c; fill-opacity: 0.28"/>
     <use xlink:href="#md889e790a0" x="464.383407" y="193.239414" style="fill: #1a4d8c; fill-opacity: 0.28"/>
     <use xlink:href="#md889e790a0" x="160.800253" y="163.858512" style="fill: #1a4d8c; fill-opacity: 0.28"/>
     <use xlink:href="#md889e790a0" x="251.603787" y="90.009464" style="fill: #1a4d8c; fill-opacity: 0.28"/>
     <use xlink:href="#md889e790a0" x="315.599497" y="67.997891" style="fill: #1a4d8c; fill-opacity: 0.28"/>
     <use xlink:href="#md889e790a0" x="277.026596" y="57.475118" style="fill: #1a4d8c; fill-opacity: 0.28"/>
     <use xlink:href="#md889e790a0" x="238.266788" y="71.954609" style="fill: #1a4d8c; fill-opacity: 0.28"/>
     <use xlink:href="#md889e790a0" x="351.31041" y="59.83171" style="fill: #1a4d8c; fill-opacity: 0.28"/>
     <use xlink:href="#md889e790a0" x="415.347376" y="53.29873" style="fill: #1a4d8c; fill-opacity: 0.28"/>
     <use xlink:href="#md889e790a0" x="445.839322" y="53.898969" style="fill: #1a4d8c; fill-opacity: 0.28"/>
     <use xlink:href="#md889e790a0" x="155.679145" y="105.288797" style="fill: #1a4d8c; fill-opacity: 0.28"/>
     <use xlink:href="#md889e790a0" x="510.527613" y="285.934101" style="fill: #1a4d8c; fill-opacity: 0.28"/>
     <use xlink:href="#md889e790a0" x="476.999718" y="82.802953" style="fill: #1a4d8c; fill-opacity: 0.28"/>
     <use xlink:href="#md889e790a0" x="114.374147" y="228.119517" style="fill: #1a4d8c; fill-opacity: 0.28"/>
     <use xlink:href="#md889e790a0" x="221.857092" y="158.941143" style="fill: #1a4d8c; fill-opacity: 0.28"/>
     <use xlink:href="#md889e790a0" x="266.621008" y="130.515907" style="fill: #1a4d8c; fill-opacity: 0.28"/>
     <use xlink:href="#md889e790a0" x="447.763337" y="54.741284" style="fill: #1a4d8c; fill-opacity: 0.28"/>
     <use xlink:href="#md889e790a0" x="276.767028" y="89.776511" style="fill: #1a4d8c; fill-opacity: 0.28"/>
     <use xlink:href="#md889e790a0" x="101.340917" y="223.459605" style="fill: #1a4d8c; fill-opacity: 0.28"/>
     <use xlink:href="#md889e790a0" x="367.060175" y="62.357562" style="fill: #1a4d8c; fill-opacity: 0.28"/>
     <use xlink:href="#md889e790a0" x="348.296721" y="113.010375" style="fill: #1a4d8c; fill-opacity: 0.28"/>
     <use xlink:href="#md889e790a0" x="151.29419" y="193.081021" style="fill: #1a4d8c; fill-opacity: 0.28"/>
     <use xlink:href="#md889e790a0" x="306.75659" y="78.715396" style="fill: #1a4d8c; fill-opacity: 0.28"/>
     <use xlink:href="#md889e790a0" x="326.816662" y="63.439619" style="fill: #1a4d8c; fill-opacity: 0.28"/>
     <use xlink:href="#md889e790a0" x="493.622996" y="105.322464" style="fill: #1a4d8c; fill-opacity: 0.28"/>
     <use xlink:href="#md889e790a0" x="69.470043" y="266.058484" style="fill: #1a4d8c; fill-opacity: 0.28"/>
     <use xlink:href="#md889e790a0" x="289.682963" y="229.923497" style="fill: #1a4d8c; fill-opacity: 0.28"/>
     <use xlink:href="#md889e790a0" x="99.323901" y="247.658296" style="fill: #1a4d8c; fill-opacity: 0.28"/>
     <use xlink:href="#md889e790a0" x="300.154693" y="116.454425" style="fill: #1a4d8c; fill-opacity: 0.28"/>
     <use xlink:href="#md889e790a0" x="196.348836" y="131.451857" style="fill: #1a4d8c; fill-opacity: 0.28"/>
     <use xlink:href="#md889e790a0" x="346.544422" y="85.698784" style="fill: #1a4d8c; fill-opacity: 0.28"/>
     <use xlink:href="#md889e790a0" x="136.813725" y="103.737051" style="fill: #1a4d8c; fill-opacity: 0.28"/>
     <use xlink:href="#md889e790a0" x="179.78302" y="115.411057" style="fill: #1a4d8c; fill-opacity: 0.28"/>
     <use xlink:href="#md889e790a0" x="308.662198" y="54.420595" style="fill: #1a4d8c; fill-opacity: 0.28"/>
     <use xlink:href="#md889e790a0" x="470.458782" y="59.6737" style="fill: #1a4d8c; fill-opacity: 0.28"/>
     <use xlink:href="#md889e790a0" x="396.775326" y="56.616629" style="fill: #1a4d8c; fill-opacity: 0.28"/>
     <use xlink:href="#md889e790a0" x="283.725217" y="70.017023" style="fill: #1a4d8c; fill-opacity: 0.28"/>
     <use xlink:href="#md889e790a0" x="372.646587" y="61.438646" style="fill: #1a4d8c; fill-opacity: 0.28"/>
     <use xlink:href="#md889e790a0" x="102.899504" y="158.815849" style="fill: #1a4d8c; fill-opacity: 0.28"/>
     <use xlink:href="#md889e790a0" x="100.387546" y="257.927886" style="fill: #1a4d8c; fill-opacity: 0.28"/>
     <use xlink:href="#md889e790a0" x="294.922339" y="86.802344" style="fill: #1a4d8c; fill-opacity: 0.28"/>
     <use xlink:href="#md889e790a0" x="395.408791" y="85.697677" style="fill: #1a4d8c; fill-opacity: 0.28"/>
     <use xlink:href="#md889e790a0" x="83.173498" y="224.637139" style="fill: #1a4d8c; fill-opacity: 0.28"/>
     <use xlink:href="#md889e790a0" x="348.867654" y="60.671912" style="fill: #1a4d8c; fill-opacity: 0.28"/>
     <use xlink:href="#md889e790a0" x="181.387812" y="90.740158" style="fill: #1a4d8c; fill-opacity: 0.28"/>
     <use xlink:href="#md889e790a0" x="97.242852" y="228.762846" style="fill: #1a4d8c; fill-opacity: 0.28"/>
     <use xlink:href="#md889e790a0" x="472.099555" y="57.99893" style="fill: #1a4d8c; fill-opacity: 0.28"/>
     <use xlink:href="#md889e790a0" x="111.642698" y="145.888789" style="fill: #1a4d8c; fill-opacity: 0.28"/>
     <use xlink:href="#md889e790a0" x="291.391232" y="61.064328" style="fill: #1a4d8c; fill-opacity: 0.28"/>
     <use xlink:href="#md889e790a0" x="220.190242" y="84.038749" style="fill: #1a4d8c; fill-opacity: 0.28"/>
     <use xlink:href="#md889e790a0" x="134.605253" y="164.982641" style="fill: #1a4d8c; fill-opacity: 0.28"/>
     <use xlink:href="#md889e790a0" x="233.949154" y="113.056918" style="fill: #1a4d8c; fill-opacity: 0.28"/>
     <use xlink:href="#md889e790a0" x="275.06866" y="85.639173" style="fill: #1a4d8c; fill-opacity: 0.28"/>
     <use xlink:href="#md889e790a0" x="465.994561" y="53.708917" style="fill: #1a4d8c; fill-opacity: 0.28"/>
     <use xlink:href="#md889e790a0" x="307.43136" y="167.152129" style="fill: #1a4d8c; fill-opacity: 0.28"/>
     <use xlink:href="#md889e790a0" x="476.152548" y="65.710036" style="fill: #1a4d8c; fill-opacity: 0.28"/>
     <use xlink:href="#md889e790a0" x="185.565847" y="117.642644" style="fill: #1a4d8c; fill-opacity: 0.28"/>
     <use xlink:href="#md889e790a0" x="191.143546" y="86.030179" style="fill: #1a4d8c; fill-opacity: 0.28"/>
     <use xlink:href="#md889e790a0" x="321.887063" y="58.559699" style="fill: #1a4d8c; fill-opacity: 0.28"/>
     <use xlink:href="#md889e790a0" x="169.166912" y="164.125584" style="fill: #1a4d8c; fill-opacity: 0.28"/>
    </g>
   </g>
   <g id="matplotlib.axis_1">
    <g id="xtick_1">
     <g id="line2d_1">
      <defs>
       <path id="m7fd02831d5" d="M 0 0 
L 0 3.5 
" style="stroke: #000000; stroke-width: 0.8"/>
      </defs>
      <g>
       <use xlink:href="#m7fd02831d5" x="93.006417" y="384.797969" style="stroke: #000000; stroke-width: 0.8"/>
      </g>
     </g>
     <g id="text_1">
      <!-- 50 -->
      <g transform="translate(86.643917 399.396406) scale(0.1 -0.1)">
       <defs>
        <path id="DejaVuSans-35" d="M 691 4666 
L 3169 4666 
L 3169 4134 
L 1269 4134 
L 1269 2991 
Q 1406 3038 1543 3061 
Q 1681 3084 1819 3084 
Q 2600 3084 3056 2656 
Q 3513 2228 3513 1497 
Q 3513 744 3044 326 
Q 2575 -91 1722 -91 
Q 1428 -91 1123 -41 
Q 819 9 494 109 
L 494 744 
Q 775 591 1075 516 
Q 1375 441 1709 441 
Q 2250 441 2565 725 
Q 2881 1009 2881 1497 
Q 2881 1984 2565 2268 
Q 2250 2553 1709 2553 
Q 1456 2553 1204 2497 
Q 953 2441 691 2322 
L 691 4666 
z
" transform="scale(0.015625)"/>
        <path id="DejaVuSans-30" d="M 2034 4250 
Q 1547 4250 1301 3770 
Q 1056 3291 1056 2328 
Q 1056 1369 1301 889 
Q 1547 409 2034 409 
Q 2525 409 2770 889 
Q 3016 1369 3016 2328 
Q 3016 3291 2770 3770 
Q 2525 4250 2034 4250 
z
M 2034 4750 
Q 2819 4750 3233 4129 
Q 3647 3509 3647 2328 
Q 3647 1150 3233 529 
Q 2819 -91 2034 -91 
Q 1250 -91 836 529 
Q 422 1150 422 2328 
Q 422 3509 836 4129 
Q 1250 4750 2034 4750 
z
" transform="scale(0.015625)"/>
       </defs>
       <use xlink:href="#DejaVuSans-35"/>
       <use xlink:href="#DejaVuSans-30" x="63.623047"/>
      </g>
     </g>
    </g>
    <g id="xtick_2">
     <g id="line2d_2">
      <g>
       <use xlink:href="#m7fd02831d5" x="155.773752" y="384.797969" style="stroke: #000000; stroke-width: 0.8"/>
      </g>
     </g>
     <g id="text_2">
      <!-- 100 -->
      <g transform="translate(146.230002 399.396406) scale(0.1 -0.1)">
       <defs>
        <path id="DejaVuSans-31" d="M 794 531 
L 1825 531 
L 1825 4091 
L 703 3866 
L 703 4441 
L 1819 4666 
L 2450 4666 
L 2450 531 
L 3481 531 
L 3481 0 
L 794 0 
L 794 531 
z
" transform="scale(0.015625)"/>
       </defs>
       <use xlink:href="#DejaVuSans-31"/>
       <use xlink:href="#DejaVuSans-30" x="63.623047"/>
       <use xlink:href="#DejaVuSans-30" x="127.246094"/>
      </g>
     </g>
    </g>
    <g id="xtick_3">
     <g id="line2d_3">
      <g>
       <use xlink:href="#m7fd02831d5" x="218.541088" y="384.797969" style="stroke: #000000; stroke-width: 0.8"/>
      </g>
     </g>
     <g id="text_3">
      <!-- 150 -->
      <g transform="translate(208.997338 399.396406) scale(0.1 -0.1)">
       <use xlink:href="#DejaVuSans-31"/>
       <use xlink:href="#DejaVuSans-35" x="63.623047"/>
       <use xlink:href="#DejaVuSans-30" x="127.246094"/>
      </g>
     </g>
    </g>
    <g id="xtick_4">
     <g id="line2d_4">
      <g>
       <use xlink:href="#m7fd02831d5" x="281.308423" y="384.797969" style="stroke: #000000; stroke-width: 0.8"/>
      </g>
     </g>
     <g id="text_4">
      <!-- 200 -->
      <g transform="translate(271.764673 399.396406) scale(0.1 -0.1)">
       <defs>
        <path id="DejaVuSans-32" d="M 1228 531 
L 3431 531 
L 3431 0 
L 469 0 
L 469 531 
Q 828 903 1448 1529 
Q 2069 2156 2228 2338 
Q 2531 2678 2651 2914 
Q 2772 3150 2772 3378 
Q 2772 3750 2511 3984 
Q 2250 4219 1831 4219 
Q 1534 4219 1204 4116 
Q 875 4013 500 3803 
L 500 4441 
Q 881 4594 1212 4672 
Q 1544 4750 1819 4750 
Q 2544 4750 2975 4387 
Q 3406 4025 3406 3419 
Q 3406 3131 3298 2873 
Q 3191 2616 2906 2266 
Q 2828 2175 2409 1742 
Q 1991 1309 1228 531 
z
" transform="scale(0.015625)"/>
       </defs>
       <use xlink:href="#DejaVuSans-32"/>
       <use xlink:href="#DejaVuSans-30" x="63.623047"/>
       <use xlink:href="#DejaVuSans-30" x="127.246094"/>
      </g>
     </g>
    </g>
    <g id="xtick_5">
     <g id="line2d_5">
      <g>
       <use xlink:href="#m7fd02831d5" x="344.075759" y="384.797969" style="stroke: #000000; stroke-width: 0.8"/>
      </g>
     </g>
     <g id="text_5">
      <!-- 250 -->
      <g transform="translate(334.532009 399.396406) scale(0.1 -0.1)">
       <use xlink:href="#DejaVuSans-32"/>
       <use xlink:href="#DejaVuSans-35" x="63.623047"/>
       <use xlink:href="#DejaVuSans-30" x="127.246094"/>
      </g>
     </g>
    </g>
    <g id="xtick_6">
     <g id="line2d_6">
      <g>
       <use xlink:href="#m7fd02831d5" x="406.843094" y="384.797969" style="stroke: #000000; stroke-width: 0.8"/>
      </g>
     </g>
     <g id="text_6">
      <!-- 300 -->
      <g transform="translate(397.299344 399.396406) scale(0.1 -0.1)">
       <defs>
        <path id="DejaVuSans-33" d="M 2597 2516 
Q 3050 2419 3304 2112 
Q 3559 1806 3559 1356 
Q 3559 666 3084 287 
Q 2609 -91 1734 -91 
Q 1441 -91 1130 -33 
Q 819 25 488 141 
L 488 750 
Q 750 597 1062 519 
Q 1375 441 1716 441 
Q 2309 441 2620 675 
Q 2931 909 2931 1356 
Q 2931 1769 2642 2001 
Q 2353 2234 1838 2234 
L 1294 2234 
L 1294 2753 
L 1863 2753 
Q 2328 2753 2575 2939 
Q 2822 3125 2822 3475 
Q 2822 3834 2567 4026 
Q 2313 4219 1838 4219 
Q 1578 4219 1281 4162 
Q 984 4106 628 3988 
L 628 4550 
Q 988 4650 1302 4700 
Q 1616 4750 1894 4750 
Q 2613 4750 3031 4423 
Q 3450 4097 3450 3541 
Q 3450 3153 3228 2886 
Q 3006 2619 2597 2516 
z
" transform="scale(0.015625)"/>
       </defs>
       <use xlink:href="#DejaVuSans-33"/>
       <use xlink:href="#DejaVuSans-30" x="63.623047"/>
       <use xlink:href="#DejaVuSans-30" x="127.246094"/>
      </g>
     </g>
    </g>
    <g id="xtick_7">
     <g id="line2d_7">
      <g>
       <use xlink:href="#m7fd02831d5" x="469.61043" y="384.797969" style="stroke: #000000; stroke-width: 0.8"/>
      </g>
     </g>
     <g id="text_7">
      <!-- 350 -->
      <g transform="translate(460.06668 399.396406) scale(0.1 -0.1)">
       <use xlink:href="#DejaVuSans-33"/>
       <use xlink:href="#DejaVuSans-35" x="63.623047"/>
       <use xlink:href="#DejaVuSans-30" x="127.246094"/>
      </g>
     </g>
    </g>
    <g id="xtick_8">
     <g id="line2d_8">
      <g>
       <use xlink:href="#m7fd02831d5" x="532.377765" y="384.797969" style="stroke: #000000; stroke-width: 0.8"/>
      </g>
     </g>
     <g id="text_8">
      <!-- 400 -->
      <g transform="translate(522.834015 399.396406) scale(0.1 -0.1)">
       <defs>
        <path id="DejaVuSans-34" d="M 2419 4116 
L 825 1625 
L 2419 1625 
L 2419 4116 
z
M 2253 4666 
L 3047 4666 
L 3047 1625 
L 3713 1625 
L 3713 1100 
L 3047 1100 
L 3047 0 
L 2419 0 
L 2419 1100 
L 313 1100 
L 313 1709 
L 2253 4666 
z
" transform="scale(0.015625)"/>
       </defs>
       <use xlink:href="#DejaVuSans-34"/>
       <use xlink:href="#DejaVuSans-30" x="63.623047"/>
       <use xlink:href="#DejaVuSans-30" x="127.246094"/>
      </g>
     </g>
    </g>
    <g id="text_9">
     <!-- Length -->
     <g transform="translate(282.838125 414.594219) scale(0.12 -0.12)">
      <defs>
       <path id="DejaVuSans-4c" d="M 628 4666 
L 1259 4666 
L 1259 531 
L 3531 531 
L 3531 0 
L 628 0 
L 628 4666 
z
" transform="scale(0.015625)"/>
       <path id="DejaVuSans-65" d="M 3597 1894 
L 3597 1613 
L 953 1613 
Q 991 1019 1311 708 
Q 1631 397 2203 397 
Q 2534 397 2845 478 
Q 3156 559 3463 722 
L 3463 178 
Q 3153 47 2828 -22 
Q 2503 -91 2169 -91 
Q 1331 -91 842 396 
Q 353 884 353 1716 
Q 353 2575 817 3079 
Q 1281 3584 2069 3584 
Q 2775 3584 3186 3129 
Q 3597 2675 3597 1894 
z
M 3022 2063 
Q 3016 2534 2758 2815 
Q 2500 3097 2075 3097 
Q 1594 3097 1305 2825 
Q 1016 2553 972 2059 
L 3022 2063 
z
" transform="scale(0.015625)"/>
       <path id="DejaVuSans-6e" d="M 3513 2113 
L 3513 0 
L 2938 0 
L 2938 2094 
Q 2938 2591 2744 2837 
Q 2550 3084 2163 3084 
Q 1697 3084 1428 2787 
Q 1159 2491 1159 1978 
L 1159 0 
L 581 0 
L 581 3500 
L 1159 3500 
L 1159 2956 
Q 1366 3272 1645 3428 
Q 1925 3584 2291 3584 
Q 2894 3584 3203 3211 
Q 3513 2838 3513 2113 
z
" transform="scale(0.015625)"/>
       <path id="DejaVuSans-67" d="M 2906 1791 
Q 2906 2416 2648 2759 
Q 2391 3103 1925 3103 
Q 1463 3103 1205 2759 
Q 947 2416 947 1791 
Q 947 1169 1205 825 
Q 1463 481 1925 481 
Q 2391 481 2648 825 
Q 2906 1169 2906 1791 
z
M 3481 434 
Q 3481 -459 3084 -895 
Q 2688 -1331 1869 -1331 
Q 1566 -1331 1297 -1286 
Q 1028 -1241 775 -1147 
L 775 -588 
Q 1028 -725 1275 -790 
Q 1522 -856 1778 -856 
Q 2344 -856 2625 -561 
Q 2906 -266 2906 331 
L 2906 616 
Q 2728 306 2450 153 
Q 2172 0 1784 0 
Q 1141 0 747 490 
Q 353 981 353 1791 
Q 353 2603 747 3093 
Q 1141 3584 1784 3584 
Q 2172 3584 2450 3431 
Q 2728 3278 2906 2969 
L 2906 3500 
L 3481 3500 
L 3481 434 
z
" transform="scale(0.015625)"/>
       <path id="DejaVuSans-74" d="M 1172 4494 
L 1172 3500 
L 2356 3500 
L 2356 3053 
L 1172 3053 
L 1172 1153 
Q 1172 725 1289 603 
Q 1406 481 1766 481 
L 2356 481 
L 2356 0 
L 1766 0 
Q 1100 0 847 248 
Q 594 497 594 1153 
L 594 3053 
L 172 3053 
L 172 3500 
L 594 3500 
L 594 4494 
L 1172 4494 
z
" transform="scale(0.015625)"/>
       <path id="DejaVuSans-68" d="M 3513 2113 
L 3513 0 
L 2938 0 
L 2938 2094 
Q 2938 2591 2744 2837 
Q 2550 3084 2163 3084 
Q 1697 3084 1428 2787 
Q 1159 2491 1159 1978 
L 1159 0 
L 581 0 
L 581 4863 
L 1159 4863 
L 1159 2956 
Q 1366 3272 1645 3428 
Q 1925 3584 2291 3584 
Q 2894 3584 3203 3211 
Q 3513 2838 3513 2113 
z
" transform="scale(0.015625)"/>
      </defs>
      <use xlink:href="#DejaVuSans-4c"/>
      <use xlink:href="#DejaVuSans-65" x="53.962891"/>
      <use xlink:href="#DejaVuSans-6e" x="115.486328"/>
      <use xlink:href="#DejaVuSans-67" x="178.865234"/>
      <use xlink:href="#DejaVuSans-74" x="242.341797"/>
      <use xlink:href="#DejaVuSans-68" x="281.550781"/>
     </g>
    </g>
   </g>
   <g id="matplotlib.axis_2">
    <g id="ytick_1">
     <g id="line2d_9">
      <defs>
       <path id="m4397586a13" d="M 0 0 
L -3.5 0 
" style="stroke: #000000; stroke-width: 0.8"/>
      </defs>
      <g>
       <use xlink:href="#m4397586a13" x="45.716875" y="336.369572" style="stroke: #000000; stroke-width: 0.8"/>
      </g>
     </g>
     <g id="text_10">
      <!-- 0.2 -->
      <g transform="translate(22.81375 340.168791) scale(0.1 -0.1)">
       <defs>
        <path id="DejaVuSans-2e" d="M 684 794 
L 1344 794 
L 1344 0 
L 684 0 
L 684 794 
z
" transform="scale(0.015625)"/>
       </defs>
       <use xlink:href="#DejaVuSans-30"/>
       <use xlink:href="#DejaVuSans-2e" x="63.623047"/>
       <use xlink:href="#DejaVuSans-32" x="95.410156"/>
      </g>
     </g>
    </g>
    <g id="ytick_2">
     <g id="line2d_10">
      <g>
       <use xlink:href="#m4397586a13" x="45.716875" y="263.100983" style="stroke: #000000; stroke-width: 0.8"/>
      </g>
     </g>
     <g id="text_11">
      <!-- 0.4 -->
      <g transform="translate(22.81375 266.900202) scale(0.1 -0.1)">
       <use xlink:href="#DejaVuSans-30"/>
       <use xlink:href="#DejaVuSans-2e" x="63.623047"/>
       <use xlink:href="#DejaVuSans-34" x="95.410156"/>
      </g>
     </g>
    </g>
    <g id="ytick_3">
     <g id="line2d_11">
      <g>
       <use xlink:href="#m4397586a13" x="45.716875" y="189.832394" style="stroke: #000000; stroke-width: 0.8"/>
      </g>
     </g>
     <g id="text_12">
      <!-- 0.6 -->
      <g transform="translate(22.81375 193.631613) scale(0.1 -0.1)">
       <defs>
        <path id="DejaVuSans-36" d="M 2113 2584 
Q 1688 2584 1439 2293 
Q 1191 2003 1191 1497 
Q 1191 994 1439 701 
Q 1688 409 2113 409 
Q 2538 409 2786 701 
Q 3034 994 3034 1497 
Q 3034 2003 2786 2293 
Q 2538 2584 2113 2584 
z
M 3366 4563 
L 3366 3988 
Q 3128 4100 2886 4159 
Q 2644 4219 2406 4219 
Q 1781 4219 1451 3797 
Q 1122 3375 1075 2522 
Q 1259 2794 1537 2939 
Q 1816 3084 2150 3084 
Q 2853 3084 3261 2657 
Q 3669 2231 3669 1497 
Q 3669 778 3244 343 
Q 2819 -91 2113 -91 
Q 1303 -91 875 529 
Q 447 1150 447 2328 
Q 447 3434 972 4092 
Q 1497 4750 2381 4750 
Q 2619 4750 2861 4703 
Q 3103 4656 3366 4563 
z
" transform="scale(0.015625)"/>
       </defs>
       <use xlink:href="#DejaVuSans-30"/>
       <use xlink:href="#DejaVuSans-2e" x="63.623047"/>
       <use xlink:href="#DejaVuSans-36" x="95.410156"/>
      </g>
     </g>
    </g>
    <g id="ytick_4">
     <g id="line2d_12">
      <g>
       <use xlink:href="#m4397586a13" x="45.716875" y="116.563805" style="stroke: #000000; stroke-width: 0.8"/>
      </g>
     </g>
     <g id="text_13">
      <!-- 0.8 -->
      <g transform="translate(22.81375 120.363023) scale(0.1 -0.1)">
       <defs>
        <path id="DejaVuSans-38" d="M 2034 2216 
Q 1584 2216 1326 1975 
Q 1069 1734 1069 1313 
Q 1069 891 1326 650 
Q 1584 409 2034 409 
Q 2484 409 2743 651 
Q 3003 894 3003 1313 
Q 3003 1734 2745 1975 
Q 2488 2216 2034 2216 
z
M 1403 2484 
Q 997 2584 770 2862 
Q 544 3141 544 3541 
Q 544 4100 942 4425 
Q 1341 4750 2034 4750 
Q 2731 4750 3128 4425 
Q 3525 4100 3525 3541 
Q 3525 3141 3298 2862 
Q 3072 2584 2669 2484 
Q 3125 2378 3379 2068 
Q 3634 1759 3634 1313 
Q 3634 634 3220 271 
Q 2806 -91 2034 -91 
Q 1263 -91 848 271 
Q 434 634 434 1313 
Q 434 1759 690 2068 
Q 947 2378 1403 2484 
z
M 1172 3481 
Q 1172 3119 1398 2916 
Q 1625 2713 2034 2713 
Q 2441 2713 2670 2916 
Q 2900 3119 2900 3481 
Q 2900 3844 2670 4047 
Q 2441 4250 2034 4250 
Q 1625 4250 1398 4047 
Q 1172 3844 1172 3481 
z
" transform="scale(0.015625)"/>
       </defs>
       <use xlink:href="#DejaVuSans-30"/>
       <use xlink:href="#DejaVuSans-2e" x="63.623047"/>
       <use xlink:href="#DejaVuSans-38" x="95.410156"/>
      </g>
     </g>
    </g>
    <g id="ytick_5">
     <g id="line2d_13">
      <g>
       <use xlink:href="#m4397586a13" x="45.716875" y="43.295215" style="stroke: #000000; stroke-width: 0.8"/>
      </g>
     </g>
     <g id="text_14">
      <!-- 1.0 -->
      <g transform="translate(22.81375 47.094434) scale(0.1 -0.1)">
       <use xlink:href="#DejaVuSans-31"/>
       <use xlink:href="#DejaVuSans-2e" x="63.623047"/>
       <use xlink:href="#DejaVuSans-30" x="95.410156"/>
      </g>
     </g>
    </g>
    <g id="text_15">
     <!-- PTM (max per length, rolling mean) -->
     <g transform="translate(16.318125 313.316094) rotate(-90) scale(0.12 -0.12)">
      <defs>
       <path id="DejaVuSans-50" d="M 1259 4147 
L 1259 2394 
L 2053 2394 
Q 2494 2394 2734 2622 
Q 2975 2850 2975 3272 
Q 2975 3691 2734 3919 
Q 2494 4147 2053 4147 
L 1259 4147 
z
M 628 4666 
L 2053 4666 
Q 2838 4666 3239 4311 
Q 3641 3956 3641 3272 
Q 3641 2581 3239 2228 
Q 2838 1875 2053 1875 
L 1259 1875 
L 1259 0 
L 628 0 
L 628 4666 
z
" transform="scale(0.015625)"/>
       <path id="DejaVuSans-54" d="M -19 4666 
L 3928 4666 
L 3928 4134 
L 2272 4134 
L 2272 0 
L 1638 0 
L 1638 4134 
L -19 4134 
L -19 4666 
z
" transform="scale(0.015625)"/>
       <path id="DejaVuSans-4d" d="M 628 4666 
L 1569 4666 
L 2759 1491 
L 3956 4666 
L 4897 4666 
L 4897 0 
L 4281 0 
L 4281 4097 
L 3078 897 
L 2444 897 
L 1241 4097 
L 1241 0 
L 628 0 
L 628 4666 
z
" transform="scale(0.015625)"/>
       <path id="DejaVuSans-20" transform="scale(0.015625)"/>
       <path id="DejaVuSans-28" d="M 1984 4856 
Q 1566 4138 1362 3434 
Q 1159 2731 1159 2009 
Q 1159 1288 1364 580 
Q 1569 -128 1984 -844 
L 1484 -844 
Q 1016 -109 783 600 
Q 550 1309 550 2009 
Q 550 2706 781 3412 
Q 1013 4119 1484 4856 
L 1984 4856 
z
" transform="scale(0.015625)"/>
       <path id="DejaVuSans-6d" d="M 3328 2828 
Q 3544 3216 3844 3400 
Q 4144 3584 4550 3584 
Q 5097 3584 5394 3201 
Q 5691 2819 5691 2113 
L 5691 0 
L 5113 0 
L 5113 2094 
Q 5113 2597 4934 2840 
Q 4756 3084 4391 3084 
Q 3944 3084 3684 2787 
Q 3425 2491 3425 1978 
L 3425 0 
L 2847 0 
L 2847 2094 
Q 2847 2600 2669 2842 
Q 2491 3084 2119 3084 
Q 1678 3084 1418 2786 
Q 1159 2488 1159 1978 
L 1159 0 
L 581 0 
L 581 3500 
L 1159 3500 
L 1159 2956 
Q 1356 3278 1631 3431 
Q 1906 3584 2284 3584 
Q 2666 3584 2933 3390 
Q 3200 3197 3328 2828 
z
" transform="scale(0.015625)"/>
       <path id="DejaVuSans-61" d="M 2194 1759 
Q 1497 1759 1228 1600 
Q 959 1441 959 1056 
Q 959 750 1161 570 
Q 1363 391 1709 391 
Q 2188 391 2477 730 
Q 2766 1069 2766 1631 
L 2766 1759 
L 2194 1759 
z
M 3341 1997 
L 3341 0 
L 2766 0 
L 2766 531 
Q 2569 213 2275 61 
Q 1981 -91 1556 -91 
Q 1019 -91 701 211 
Q 384 513 384 1019 
Q 384 1609 779 1909 
Q 1175 2209 1959 2209 
L 2766 2209 
L 2766 2266 
Q 2766 2663 2505 2880 
Q 2244 3097 1772 3097 
Q 1472 3097 1187 3025 
Q 903 2953 641 2809 
L 641 3341 
Q 956 3463 1253 3523 
Q 1550 3584 1831 3584 
Q 2591 3584 2966 3190 
Q 3341 2797 3341 1997 
z
" transform="scale(0.015625)"/>
       <path id="DejaVuSans-78" d="M 3513 3500 
L 2247 1797 
L 3578 0 
L 2900 0 
L 1881 1375 
L 863 0 
L 184 0 
L 1544 1831 
L 300 3500 
L 978 3500 
L 1906 2253 
L 2834 3500 
L 3513 3500 
z
" transform="scale(0.015625)"/>
       <path id="DejaVuSans-70" d="M 1159 525 
L 1159 -1331 
L 581 -1331 
L 581 3500 
L 1159 3500 
L 1159 2969 
Q 1341 3281 1617 3432 
Q 1894 3584 2278 3584 
Q 2916 3584 3314 3078 
Q 3713 2572 3713 1747 
Q 3713 922 3314 415 
Q 2916 -91 2278 -91 
Q 1894 -91 1617 61 
Q 1341 213 1159 525 
z
M 3116 1747 
Q 3116 2381 2855 2742 
Q 2594 3103 2138 3103 
Q 1681 3103 1420 2742 
Q 1159 2381 1159 1747 
Q 1159 1113 1420 752 
Q 1681 391 2138 391 
Q 2594 391 2855 752 
Q 3116 1113 3116 1747 
z
" transform="scale(0.015625)"/>
       <path id="DejaVuSans-72" d="M 2631 2963 
Q 2534 3019 2420 3045 
Q 2306 3072 2169 3072 
Q 1681 3072 1420 2755 
Q 1159 2438 1159 1844 
L 1159 0 
L 581 0 
L 581 3500 
L 1159 3500 
L 1159 2956 
Q 1341 3275 1631 3429 
Q 1922 3584 2338 3584 
Q 2397 3584 2469 3576 
Q 2541 3569 2628 3553 
L 2631 2963 
z
" transform="scale(0.015625)"/>
       <path id="DejaVuSans-6c" d="M 603 4863 
L 1178 4863 
L 1178 0 
L 603 0 
L 603 4863 
z
" transform="scale(0.015625)"/>
       <path id="DejaVuSans-2c" d="M 750 794 
L 1409 794 
L 1409 256 
L 897 -744 
L 494 -744 
L 750 256 
L 750 794 
z
" transform="scale(0.015625)"/>
       <path id="DejaVuSans-6f" d="M 1959 3097 
Q 1497 3097 1228 2736 
Q 959 2375 959 1747 
Q 959 1119 1226 758 
Q 1494 397 1959 397 
Q 2419 397 2687 759 
Q 2956 1122 2956 1747 
Q 2956 2369 2687 2733 
Q 2419 3097 1959 3097 
z
M 1959 3584 
Q 2709 3584 3137 3096 
Q 3566 2609 3566 1747 
Q 3566 888 3137 398 
Q 2709 -91 1959 -91 
Q 1206 -91 779 398 
Q 353 888 353 1747 
Q 353 2609 779 3096 
Q 1206 3584 1959 3584 
z
" transform="scale(0.015625)"/>
       <path id="DejaVuSans-69" d="M 603 3500 
L 1178 3500 
L 1178 0 
L 603 0 
L 603 3500 
z
M 603 4863 
L 1178 4863 
L 1178 4134 
L 603 4134 
L 603 4863 
z
" transform="scale(0.015625)"/>
       <path id="DejaVuSans-29" d="M 513 4856 
L 1013 4856 
Q 1481 4119 1714 3412 
Q 1947 2706 1947 2009 
Q 1947 1309 1714 600 
Q 1481 -109 1013 -844 
L 513 -844 
Q 928 -128 1133 580 
Q 1338 1288 1338 2009 
Q 1338 2731 1133 3434 
Q 928 4138 513 4856 
z
" transform="scale(0.015625)"/>
      </defs>
      <use xlink:href="#DejaVuSans-50"/>
      <use xlink:href="#DejaVuSans-54" x="60.302734"/>
      <use xlink:href="#DejaVuSans-4d" x="121.386719"/>
      <use xlink:href="#DejaVuSans-20" x="207.666016"/>
      <use xlink:href="#DejaVuSans-28" x="239.453125"/>
      <use xlink:href="#DejaVuSans-6d" x="278.466797"/>
      <use xlink:href="#DejaVuSans-61" x="375.878906"/>
      <use xlink:href="#DejaVuSans-78" x="437.158203"/>
      <use xlink:href="#DejaVuSans-20" x="496.337891"/>
      <use xlink:href="#DejaVuSans-70" x="528.125"/>
      <use xlink:href="#DejaVuSans-65" x="591.601562"/>
      <use xlink:href="#DejaVuSans-72" x="653.125"/>
      <use xlink:href="#DejaVuSans-20" x="694.238281"/>
      <use xlink:href="#DejaVuSans-6c" x="726.025391"/>
      <use xlink:href="#DejaVuSans-65" x="753.808594"/>
      <use xlink:href="#DejaVuSans-6e" x="815.332031"/>
      <use xlink:href="#DejaVuSans-67" x="878.710938"/>
      <use xlink:href="#DejaVuSans-74" x="942.1875"/>
      <use xlink:href="#DejaVuSans-68" x="981.396484"/>
      <use xlink:href="#DejaVuSans-2c" x="1044.775391"/>
      <use xlink:href="#DejaVuSans-20" x="1076.5625"/>
      <use xlink:href="#DejaVuSans-72" x="1108.349609"/>
      <use xlink:href="#DejaVuSans-6f" x="1147.212891"/>
      <use xlink:href="#DejaVuSans-6c" x="1208.394531"/>
      <use xlink:href="#DejaVuSans-6c" x="1236.177734"/>
      <use xlink:href="#DejaVuSans-69" x="1263.960938"/>
      <use xlink:href="#DejaVuSans-6e" x="1291.744141"/>
      <use xlink:href="#DejaVuSans-67" x="1355.123047"/>
      <use xlink:href="#DejaVuSans-20" x="1418.599609"/>
      <use xlink:href="#DejaVuSans-6d" x="1450.386719"/>
      <use xlink:href="#DejaVuSans-65" x="1547.798828"/>
      <use xlink:href="#DejaVuSans-61" x="1609.322266"/>
      <use xlink:href="#DejaVuSans-6e" x="1670.601562"/>
      <use xlink:href="#DejaVuSans-29" x="1733.980469"/>
     </g>
    </g>
   </g>
   <g id="patch_3">
    <path d="M 45.716875 384.797969 
L 45.716875 29.077969 
" style="fill: none; stroke: #000000; stroke-width: 0.8; stroke-linejoin: miter; stroke-linecap: square"/>
   </g>
   <g id="patch_4">
    <path d="M 561.351875 384.797969 
L 561.351875 29.077969 
" style="fill: none; stroke: #000000; stroke-width: 0.8; stroke-linejoin: miter; stroke-linecap: square"/>
   </g>
   <g id="patch_5">
    <path d="M 45.716875 384.797969 
L 561.351875 384.797969 
" style="fill: none; stroke: #000000; stroke-width: 0.8; stroke-linejoin: miter; stroke-linecap: square"/>
   </g>
   <g id="patch_6">
    <path d="M 45.716875 29.077969 
L 561.351875 29.077969 
" style="fill: none; stroke: #000000; stroke-width: 0.8; stroke-linejoin: miter; stroke-linecap: square"/>
   </g>
   <g id="line2d_14">
    <path d="M 69.15483 284.742693 
L 70.410176 280.348409 
L 71.665523 278.218735 
L 72.92087 279.973693 
L 74.176216 274.389579 
L 75.431563 264.095343 
L 76.68691 248.923511 
L 77.942257 246.139305 
L 79.197603 241.02097 
L 80.45295 238.59264 
L 81.708297 237.195303 
L 82.963643 233.369636 
L 84.21899 244.558797 
L 85.474337 242.884086 
L 86.729683 244.495995 
L 87.98503 245.150179 
L 89.240377 248.640904 
L 90.495724 244.914673 
L 91.75107 249.159017 
L 93.006417 247.913451 
L 94.261764 248.99678 
L 95.51711 247.479073 
L 96.772457 251.132036 
L 98.027804 242.962588 
L 99.283151 229.093891 
L 100.538497 230.454593 
L 101.793844 228.099531 
L 103.049191 208.044872 
L 105.559884 194.076739 
L 106.815231 179.307884 
L 108.070578 177.429068 
L 109.325924 158.902582 
L 110.581271 159.227058 
L 111.836618 162.288638 
L 113.091964 156.605089 
L 114.347311 144.667542 
L 115.602658 147.765757 
L 116.858004 147.064472 
L 118.113351 152.915492 
L 119.368698 149.587005 
L 120.624045 157.923923 
L 121.879391 153.580143 
L 123.134738 164.502396 
L 124.390085 174.016846 
L 125.645431 173.006786 
L 126.900778 171.190771 
L 128.156125 166.035803 
L 129.411472 158.986318 
L 130.666818 163.084125 
L 131.922165 162.801518 
L 133.177512 148.006496 
L 134.432858 146.195716 
L 135.688205 143.605148 
L 136.943552 136.267822 
L 138.198899 145.646201 
L 139.454245 141.42279 
L 140.709592 127.381389 
L 141.964939 134.865252 
L 143.220285 137.670392 
L 144.475632 136.027082 
L 145.730979 132.824198 
L 146.986325 130.265031 
L 148.241672 129.469543 
L 149.497019 138.036735 
L 150.752366 139.282301 
L 152.007712 134.692547 
L 153.263059 134.765816 
L 154.518406 138.434479 
L 155.773752 131.6362 
L 157.029099 136.466694 
L 158.284446 125.413604 
L 159.539793 116.815011 
L 160.795139 139.800414 
L 162.050486 144.866414 
L 163.305833 144.60474 
L 164.561179 140.998879 
L 165.816526 141.605962 
L 167.071873 156.866762 
L 168.32722 164.491929 
L 169.582566 141.16635 
L 170.837913 151.580957 
L 172.09326 167.44884 
L 173.348606 163.623173 
L 174.603953 154.166291 
L 175.8593 141.67923 
L 177.114646 133.15914 
L 178.369993 144.002891 
L 179.62534 126.612068 
L 180.880687 119.902759 
L 182.136033 123.048075 
L 183.39138 121.86531 
L 184.646727 121.629804 
L 185.902073 122.535195 
L 187.15742 109.367783 
L 188.412767 110.550547 
L 189.668114 96.467277 
L 190.92346 92.955619 
L 192.178807 99.214849 
L 193.434154 96.373075 
L 194.6895 96.45681 
L 195.944847 97.032492 
L 197.200194 96.68185 
L 198.455541 96.137569 
L 199.710887 95.300213 
L 200.966234 91.982193 
L 202.221581 105.112971 
L 203.476927 101.318705 
L 204.732274 99.476523 
L 205.987621 95.467684 
L 207.242967 105.877058 
L 208.498314 107.834376 
L 209.753661 105.212407 
L 211.009008 90.720927 
L 212.264354 93.055054 
L 213.519701 94.734999 
L 214.775048 96.723717 
L 216.030394 87.852985 
L 217.285741 92.573575 
L 218.541088 102.846878 
L 219.796435 103.898806 
L 221.051781 104.265149 
L 222.307128 105.489781 
L 223.562475 109.221245 
L 224.817821 111.989751 
L 226.073168 103.993008 
L 227.328515 100.842459 
L 228.583862 100.76919 
L 229.839208 103.726101 
L 231.094555 100.486583 
L 232.349902 110.430177 
L 233.605248 106.070696 
L 234.860595 105.510715 
L 236.115942 102.030457 
L 237.371288 103.820304 
L 238.626635 103.579564 
L 239.881982 105.280442 
L 241.137329 92.604976 
L 242.392675 96.71325 
L 243.648022 100.261544 
L 244.903369 95.79216 
L 246.158715 101.329172 
L 247.414062 98.497864 
L 248.669409 103.637132 
L 249.924756 99.654461 
L 251.180102 93.934278 
L 252.435449 96.080001 
L 253.690796 95.776459 
L 254.946142 89.475361 
L 256.201489 90.344117 
L 257.456836 86.110239 
L 258.712183 90.898865 
L 259.967529 98.864207 
L 261.222876 95.232178 
L 262.478223 101.533277 
L 263.733569 98.968876 
L 264.988916 98.105354 
L 266.244263 94.808267 
L 267.499609 94.714065 
L 268.754956 86.15734 
L 270.010303 84.142454 
L 271.26565 78.380403 
L 272.520996 80.724998 
L 273.776343 76.548688 
L 275.03169 74.507634 
L 276.287036 68.839786 
L 277.542383 71.210548 
L 278.79773 72.503215 
L 280.053077 69.300331 
L 281.308423 70.111519 
L 282.56377 70.153387 
L 283.819117 73.167866 
L 285.074463 75.580496 
L 286.32981 97.069126 
L 287.585157 94.478559 
L 288.840504 94.290154 
L 290.09585 89.59573 
L 291.351197 92.243867 
L 292.606544 88.868278 
L 293.86189 89.454427 
L 295.117237 64.574507 
L 296.372584 72.241542 
L 297.62793 72.702087 
L 298.883277 81.525719 
L 300.138624 77.815188 
L 301.393971 77.422678 
L 302.649317 77.914624 
L 303.904664 94.106982 
L 305.160011 86.591718 
L 306.415357 87.837284 
L 307.670704 83.09576 
L 308.926051 85.989869 
L 310.181398 87.345338 
L 311.436744 84.540198 
L 312.692091 70.012083 
L 313.947438 70.059184 
L 315.202784 68.128034 
L 316.458131 65.516532 
L 317.713478 63.198104 
L 318.968825 62.700925 
L 320.224171 61.465826 
L 321.479518 64.590208 
L 322.734865 64.543106 
L 323.990211 65.788672 
L 325.245558 64.867582 
L 327.756251 63.946491 
L 329.011598 64.297133 
L 330.266945 59.649811 
L 331.522292 58.69732 
L 332.777638 61.251253 
L 335.288332 61.926371 
L 336.543678 61.633297 
L 337.799025 60.911078 
L 339.054372 61.020981 
L 340.309719 61.785067 
L 341.565065 57.661092 
L 342.820412 61.450125 
L 344.075759 69.23753 
L 345.331105 69.342199 
L 347.841799 69.88648 
L 349.097146 69.677141 
L 350.352492 69.844612 
L 352.863186 59.456173 
L 354.118532 61.193685 
L 355.373879 61.387324 
L 356.629226 61.319288 
L 357.884572 61.089016 
L 359.139919 61.413491 
L 360.395266 62.884096 
L 361.650613 60.419131 
L 362.905959 60.309229 
L 364.161306 60.366797 
L 365.416653 60.754074 
L 366.671999 62.627656 
L 367.927346 61.727499 
L 369.182693 61.157051 
L 371.693386 60.722673 
L 372.948733 60.419131 
L 375.459426 59.477107 
L 376.714773 61.39779 
L 377.97012 61.256487 
L 379.225467 60.623237 
L 380.480813 59.801582 
L 381.73616 59.832983 
L 382.991507 62.716625 
L 384.246853 60.722673 
L 385.5022 59.864384 
L 386.757547 67.777391 
L 388.012894 67.751224 
L 389.26824 67.306379 
L 390.523587 67.227877 
L 391.778934 68.991556 
L 393.03428 69.221829 
L 394.289627 70.818038 
L 395.544974 61.989173 
L 396.80032 63.187637 
L 398.055667 70.938407 
L 399.311014 72.105471 
L 400.566361 67.426749 
L 401.821707 69.504437 
L 403.077054 81.216944 
L 404.332401 83.467336 
L 405.587747 82.551479 
L 406.843094 75.580496 
L 408.098441 75.413025 
L 409.353788 76.836529 
L 410.609134 75.266488 
L 411.864481 61.209386 
L 413.119828 59.492807 
L 414.375174 58.692086 
L 415.630521 57.608758 
L 416.885868 57.483154 
L 418.141215 58.074537 
L 419.396561 60.272594 
L 420.651908 60.413898 
L 421.907255 60.88491 
L 423.162601 63.862755 
L 424.417948 64.181997 
L 425.673295 63.91509 
L 426.928641 64.250032 
L 428.183988 61.544328 
L 429.439335 63.114369 
L 430.694682 62.549154 
L 431.950028 59.989987 
L 433.205375 62.434018 
L 434.460722 61.753666 
L 435.716068 59.377671 
L 436.971415 61.874036 
L 438.226762 61.806001 
L 439.482109 62.899797 
L 440.737455 63.062034 
L 441.992802 60.958179 
L 443.248149 61.418724 
L 444.503495 61.617596 
L 445.758842 59.424772 
L 447.014189 57.859964 
L 448.269536 61.99964 
L 449.524882 63.093435 
L 450.780229 63.67435 
L 452.035576 65.673536 
L 453.290922 67.170309 
L 454.546269 67.740757 
L 455.801616 67.882061 
L 457.056962 64.70011 
L 458.312309 63.496412 
L 459.567656 64.181997 
L 460.823003 81.682723 
L 462.078349 80.918636 
L 463.333696 82.284572 
L 464.589043 86.827224 
L 465.844389 86.680687 
L 467.099736 88.821177 
L 468.355083 87.769249 
L 469.61043 68.714182 
L 470.865776 73.105064 
L 472.121123 73.466174 
L 473.37647 72.916659 
L 474.631816 99.005511 
L 475.887163 101.119833 
L 477.14251 123.780761 
L 478.397857 136.812103 
L 479.653203 138.34551 
L 480.90855 149.372432 
L 482.163897 152.271775 
L 483.419243 156.102676 
L 490.951324 187.660504 
L 493.462017 182.707024 
L 511.036871 188.821287 
L 537.399152 210.201062 
L 537.399152 210.201062 
" clip-path="url(#pcd6479ad18)" style="fill: none; stroke: #1a4d8c; stroke-width: 1.5; stroke-linecap: square"/>
   </g>
   <g id="text_16">
    <!-- PTM vs. length -->
    <g transform="translate(255.887344 17.077969) scale(0.13 -0.13)">
     <defs>
      <path id="DejaVuSans-76" d="M 191 3500 
L 800 3500 
L 1894 563 
L 2988 3500 
L 3597 3500 
L 2284 0 
L 1503 0 
L 191 3500 
z
" transform="scale(0.015625)"/>
      <path id="DejaVuSans-73" d="M 2834 3397 
L 2834 2853 
Q 2591 2978 2328 3040 
Q 2066 3103 1784 3103 
Q 1356 3103 1142 2972 
Q 928 2841 928 2578 
Q 928 2378 1081 2264 
Q 1234 2150 1697 2047 
L 1894 2003 
Q 2506 1872 2764 1633 
Q 3022 1394 3022 966 
Q 3022 478 2636 193 
Q 2250 -91 1575 -91 
Q 1294 -91 989 -36 
Q 684 19 347 128 
L 347 722 
Q 666 556 975 473 
Q 1284 391 1588 391 
Q 1994 391 2212 530 
Q 2431 669 2431 922 
Q 2431 1156 2273 1281 
Q 2116 1406 1581 1522 
L 1381 1569 
Q 847 1681 609 1914 
Q 372 2147 372 2553 
Q 372 3047 722 3315 
Q 1072 3584 1716 3584 
Q 2034 3584 2315 3537 
Q 2597 3491 2834 3397 
z
" transform="scale(0.015625)"/>
     </defs>
     <use xlink:href="#DejaVuSans-50"/>
     <use xlink:href="#DejaVuSans-54" x="60.302734"/>
     <use xlink:href="#DejaVuSans-4d" x="121.386719"/>
     <use xlink:href="#DejaVuSans-20" x="207.666016"/>
     <use xlink:href="#DejaVuSans-76" x="239.453125"/>
     <use xlink:href="#DejaVuSans-73" x="298.632812"/>
     <use xlink:href="#DejaVuSans-2e" x="350.732422"/>
     <use xlink:href="#DejaVuSans-20" x="382.519531"/>
     <use xlink:href="#DejaVuSans-6c" x="414.306641"/>
     <use xlink:href="#DejaVuSans-65" x="442.089844"/>
     <use xlink:href="#DejaVuSans-6e" x="503.613281"/>
     <use xlink:href="#DejaVuSans-67" x="566.992188"/>
     <use xlink:href="#DejaVuSans-74" x="630.46875"/>
     <use xlink:href="#DejaVuSans-68" x="669.677734"/>
    </g>
   </g>
   <g id="legend_1">
    <g id="patch_7">
     <path d="M 52.716875 66.434219 
L 225.312188 66.434219 
Q 227.312188 66.434219 227.312188 64.434219 
L 227.312188 36.077969 
Q 227.312188 34.077969 225.312188 34.077969 
L 52.716875 34.077969 
Q 50.716875 34.077969 50.716875 36.077969 
L 50.716875 64.434219 
Q 50.716875 66.434219 52.716875 66.434219 
z
" style="fill: #ffffff; opacity: 0.8; stroke: #cccccc; stroke-linejoin: miter"/>
    </g>
    <g id="PathCollection_2">
     <g>
      <use xlink:href="#md889e790a0" x="64.716875" y="43.051406" style="fill: #1a4d8c; fill-opacity: 0.28"/>
     </g>
    </g>
    <g id="text_17">
     <!-- PTM (group max per length) -->
     <g transform="translate(82.716875 45.676406) scale(0.1 -0.1)">
      <defs>
       <path id="DejaVuSans-75" d="M 544 1381 
L 544 3500 
L 1119 3500 
L 1119 1403 
Q 1119 906 1312 657 
Q 1506 409 1894 409 
Q 2359 409 2629 706 
Q 2900 1003 2900 1516 
L 2900 3500 
L 3475 3500 
L 3475 0 
L 2900 0 
L 2900 538 
Q 2691 219 2414 64 
Q 2138 -91 1772 -91 
Q 1169 -91 856 284 
Q 544 659 544 1381 
z
M 1991 3584 
L 1991 3584 
z
" transform="scale(0.015625)"/>
      </defs>
      <use xlink:href="#DejaVuSans-50"/>
      <use xlink:href="#DejaVuSans-54" x="60.302734"/>
      <use xlink:href="#DejaVuSans-4d" x="121.386719"/>
      <use xlink:href="#DejaVuSans-20" x="207.666016"/>
      <use xlink:href="#DejaVuSans-28" x="239.453125"/>
      <use xlink:href="#DejaVuSans-67" x="278.466797"/>
      <use xlink:href="#DejaVuSans-72" x="341.943359"/>
      <use xlink:href="#DejaVuSans-6f" x="380.806641"/>
      <use xlink:href="#DejaVuSans-75" x="441.988281"/>
      <use xlink:href="#DejaVuSans-70" x="505.367188"/>
      <use xlink:href="#DejaVuSans-20" x="568.84375"/>
      <use xlink:href="#DejaVuSans-6d" x="600.630859"/>
      <use xlink:href="#DejaVuSans-61" x="698.042969"/>
      <use xlink:href="#DejaVuSans-78" x="759.322266"/>
      <use xlink:href="#DejaVuSans-20" x="818.501953"/>
      <use xlink:href="#DejaVuSans-70" x="850.289062"/>
      <use xlink:href="#DejaVuSans-65" x="913.765625"/>
      <use xlink:href="#DejaVuSans-72" x="975.289062"/>
      <use xlink:href="#DejaVuSans-20" x="1016.402344"/>
      <use xlink:href="#DejaVuSans-6c" x="1048.189453"/>
      <use xlink:href="#DejaVuSans-65" x="1075.972656"/>
      <use xlink:href="#DejaVuSans-6e" x="1137.496094"/>
      <use xlink:href="#DejaVuSans-67" x="1200.875"/>
      <use xlink:href="#DejaVuSans-74" x="1264.351562"/>
      <use xlink:href="#DejaVuSans-68" x="1303.560547"/>
      <use xlink:href="#DejaVuSans-29" x="1366.939453"/>
     </g>
    </g>
    <g id="line2d_15">
     <path d="M 54.716875 56.854531 
L 64.716875 56.854531 
L 74.716875 56.854531 
" style="fill: none; stroke: #1a4d8c; stroke-width: 1.5; stroke-linecap: square"/>
    </g>
    <g id="text_18">
     <!-- PTM (smoothed) -->
     <g transform="translate(82.716875 60.354531) scale(0.1 -0.1)">
      <defs>
       <path id="DejaVuSans-64" d="M 2906 2969 
L 2906 4863 
L 3481 4863 
L 3481 0 
L 2906 0 
L 2906 525 
Q 2725 213 2448 61 
Q 2172 -91 1784 -91 
Q 1150 -91 751 415 
Q 353 922 353 1747 
Q 353 2572 751 3078 
Q 1150 3584 1784 3584 
Q 2172 3584 2448 3432 
Q 2725 3281 2906 2969 
z
M 947 1747 
Q 947 1113 1208 752 
Q 1469 391 1925 391 
Q 2381 391 2643 752 
Q 2906 1113 2906 1747 
Q 2906 2381 2643 2742 
Q 2381 3103 1925 3103 
Q 1469 3103 1208 2742 
Q 947 2381 947 1747 
z
" transform="scale(0.015625)"/>
      </defs>
      <use xlink:href="#DejaVuSans-50"/>
      <use xlink:href="#DejaVuSans-54" x="60.302734"/>
      <use xlink:href="#DejaVuSans-4d" x="121.386719"/>
      <use xlink:href="#DejaVuSans-20" x="207.666016"/>
      <use xlink:href="#DejaVuSans-28" x="239.453125"/>
      <use xlink:href="#DejaVuSans-73" x="278.466797"/>
      <use xlink:href="#DejaVuSans-6d" x="330.566406"/>
      <use xlink:href="#DejaVuSans-6f" x="427.978516"/>
      <use xlink:href="#DejaVuSans-6f" x="489.160156"/>
      <use xlink:href="#DejaVuSans-74" x="550.341797"/>
      <use xlink:href="#DejaVuSans-68" x="589.550781"/>
      <use xlink:href="#DejaVuSans-65" x="652.929688"/>
      <use xlink:href="#DejaVuSans-64" x="714.453125"/>
      <use xlink:href="#DejaVuSans-29" x="777.929688"/>
     </g>
    </g>
   </g>
  </g>
 </g>
 <defs>
  <clipPath id="pcd6479ad18">
   <rect x="45.716875" y="29.077969" width="515.635" height="355.72"/>
  </clipPath>
 </defs>
</svg>
